<svg width="36" height="36" viewBox="0 0 36 36" fill="none" xmlns="http://www.w3.org/2000/svg">
<rect width="36" height="36" rx="8" fill="#291832"/>
<path d="M6.57422 13H8.54883V20.4414L8.34375 22H6.57422V13ZM12.4395 18.7598V18.8828C12.4395 19.3633 12.3906 19.8008 12.293 20.1953C12.1953 20.5898 12.0449 20.9316 11.8418 21.2207C11.6387 21.5059 11.3828 21.7266 11.0742 21.8828C10.7656 22.0391 10.4004 22.1172 9.97852 22.1172C9.5957 22.1172 9.26758 22.0352 8.99414 21.8711C8.7207 21.7031 8.49219 21.4727 8.30859 21.1797C8.125 20.8828 7.97656 20.541 7.86328 20.1543C7.75 19.7637 7.66016 19.3457 7.59375 18.9004V18.7539C7.66016 18.3125 7.75 17.8984 7.86328 17.5117C7.97656 17.1211 8.125 16.7793 8.30859 16.4863C8.49219 16.1895 8.71875 15.959 8.98828 15.7949C9.26172 15.627 9.58789 15.543 9.9668 15.543C10.3926 15.543 10.7598 15.623 11.0684 15.7832C11.3809 15.9434 11.6387 16.168 11.8418 16.457C12.0449 16.7461 12.1953 17.0859 12.293 17.4766C12.3906 17.8672 12.4395 18.2949 12.4395 18.7598ZM10.4648 18.8828V18.7598C10.4648 18.5293 10.4512 18.3125 10.4238 18.1094C10.3965 17.9062 10.3477 17.7266 10.2773 17.5703C10.207 17.4141 10.1074 17.291 9.97852 17.2012C9.84961 17.1113 9.68164 17.0664 9.47461 17.0664C9.26367 17.0664 9.08594 17.1016 8.94141 17.1719C8.80078 17.2422 8.6875 17.3438 8.60156 17.4766C8.51953 17.6055 8.46094 17.7656 8.42578 17.957C8.39062 18.1445 8.375 18.3574 8.37891 18.5957V19.0586C8.37109 19.3828 8.40039 19.6602 8.4668 19.8906C8.5332 20.1211 8.64844 20.2969 8.8125 20.418C8.97656 20.5391 9.20117 20.5996 9.48633 20.5996C9.69727 20.5996 9.86719 20.5586 9.99609 20.4766C10.1289 20.3945 10.2285 20.2773 10.2949 20.125C10.3613 19.9727 10.4062 19.791 10.4297 19.5801C10.4531 19.3691 10.4648 19.1367 10.4648 18.8828ZM15.4043 13V22H13.4238V13H15.4043ZM16.377 18.8945V18.7715C16.377 18.3066 16.4434 17.8789 16.5762 17.4883C16.709 17.0938 16.9043 16.752 17.1621 16.4629C17.4199 16.1738 17.7383 15.9492 18.1172 15.7891C18.4961 15.625 18.9336 15.543 19.4297 15.543C19.9297 15.543 20.3691 15.625 20.748 15.7891C21.1309 15.9492 21.4512 16.1738 21.709 16.4629C21.9668 16.752 22.1621 17.0938 22.2949 17.4883C22.4277 17.8789 22.4941 18.3066 22.4941 18.7715V18.8945C22.4941 19.3555 22.4277 19.7832 22.2949 20.1777C22.1621 20.5684 21.9668 20.9102 21.709 21.2031C21.4512 21.4922 21.1328 21.7168 20.7539 21.877C20.375 22.0371 19.9375 22.1172 19.4414 22.1172C18.9453 22.1172 18.5059 22.0371 18.123 21.877C17.7402 21.7168 17.4199 21.4922 17.1621 21.2031C16.9043 20.9102 16.709 20.5684 16.5762 20.1777C16.4434 19.7832 16.377 19.3555 16.377 18.8945ZM18.3516 18.7715V18.8945C18.3516 19.1328 18.3691 19.3555 18.4043 19.5625C18.4395 19.7695 18.498 19.9512 18.5801 20.1074C18.6621 20.2598 18.7734 20.3789 18.9141 20.4648C19.0547 20.5508 19.2305 20.5938 19.4414 20.5938C19.6484 20.5938 19.8203 20.5508 19.957 20.4648C20.0977 20.3789 20.209 20.2598 20.291 20.1074C20.373 19.9512 20.4316 19.7695 20.4668 19.5625C20.502 19.3555 20.5195 19.1328 20.5195 18.8945V18.7715C20.5195 18.541 20.502 18.3242 20.4668 18.1211C20.4316 17.9141 20.373 17.7324 20.291 17.5762C20.209 17.416 20.0977 17.291 19.957 17.2012C19.8164 17.1113 19.6406 17.0664 19.4297 17.0664C19.2227 17.0664 19.0488 17.1113 18.9082 17.2012C18.7715 17.291 18.6621 17.416 18.5801 17.5762C18.498 17.7324 18.4395 17.9141 18.4043 18.1211C18.3691 18.3242 18.3516 18.541 18.3516 18.7715ZM27.3574 15.6602H29.1504V21.7539C29.1504 22.3398 29.0156 22.8359 28.7461 23.2422C28.4766 23.6523 28.0996 23.9629 27.6152 24.1738C27.1348 24.3887 26.5723 24.4961 25.9277 24.4961C25.6426 24.4961 25.3516 24.459 25.0547 24.3848C24.7578 24.3145 24.4805 24.209 24.2227 24.0684C23.9648 23.9277 23.748 23.7539 23.5723 23.5469L24.3984 22.3867C24.5586 22.5664 24.7598 22.7188 25.002 22.8438C25.2441 22.9727 25.5293 23.0371 25.8574 23.0371C26.1426 23.0371 26.3809 22.9863 26.5723 22.8848C26.7676 22.7832 26.916 22.6348 27.0176 22.4395C27.1191 22.248 27.1699 22.0156 27.1699 21.7422V17.1602L27.3574 15.6602ZM23.1445 18.9062V18.7832C23.1445 18.3027 23.2031 17.8652 23.3203 17.4707C23.4414 17.0723 23.6133 16.7305 23.8359 16.4453C24.0625 16.1562 24.3359 15.9336 24.6562 15.7773C24.9766 15.6211 25.3379 15.543 25.7402 15.543C26.1738 15.543 26.5293 15.627 26.8066 15.7949C27.0879 15.959 27.3125 16.1895 27.4805 16.4863C27.6523 16.7832 27.7852 17.1309 27.8789 17.5293C27.9766 17.9238 28.0586 18.3496 28.125 18.8066V18.9531C28.0586 19.3828 27.9668 19.7891 27.8496 20.1719C27.7363 20.5508 27.5879 20.8867 27.4043 21.1797C27.2207 21.4727 26.9902 21.7031 26.7129 21.8711C26.4395 22.0352 26.1113 22.1172 25.7285 22.1172C25.3301 22.1172 24.9707 22.0371 24.6504 21.877C24.334 21.7168 24.0625 21.4922 23.8359 21.2031C23.6133 20.9141 23.4414 20.5742 23.3203 20.1836C23.2031 19.793 23.1445 19.3672 23.1445 18.9062ZM25.1191 18.7832V18.9062C25.1191 19.1445 25.1406 19.3652 25.1836 19.5684C25.2305 19.7715 25.3008 19.9512 25.3945 20.1074C25.4883 20.2598 25.6035 20.3789 25.7402 20.4648C25.8809 20.5508 26.0449 20.5938 26.2324 20.5938C26.5176 20.5938 26.748 20.5332 26.9238 20.4121C27.0996 20.291 27.2266 20.1191 27.3047 19.8965C27.3828 19.6738 27.416 19.4121 27.4043 19.1113V18.6484C27.4121 18.3906 27.3945 18.1641 27.3516 17.9688C27.3086 17.7695 27.2402 17.6035 27.1465 17.4707C27.0566 17.3379 26.9355 17.2383 26.7832 17.1719C26.6348 17.1016 26.4551 17.0664 26.2441 17.0664C26.0605 17.0664 25.8984 17.1094 25.7578 17.1953C25.6172 17.2812 25.5 17.4023 25.4062 17.5586C25.3125 17.7109 25.2402 17.8926 25.1895 18.1035C25.1426 18.3105 25.1191 18.5371 25.1191 18.7832Z" fill="white"/>
</svg>
